HIERARCHY
ROOT Hips
{
  OFFSET 0.546397 100.972 1.86351
  CHANNELS 6 Xposition Yposition Zposition Zrotation Xrotation Yrotation
  JOINT Spine
  {
    OFFSET 0 10.1816 0.1315
    CHANNELS 6 Xposition Yposition Zposition Zrotation Xrotation Yrotation
    JOINT Spine1
    {
      OFFSET 0 10.0835 -1.0008
      CHANNELS 6 Xposition Yposition Zposition Zrotation Xrotation Yrotation
      JOINT Spine2
      {
        OFFSET 0 9.1 -1.3734
        CHANNELS 6 Xposition Yposition Zposition Zrotation Xrotation Yrotation
        JOINT Neck
        {
          OFFSET 0 16.6717 -2.5162
          CHANNELS 6 Xposition Yposition Zposition Zrotation Xrotation Yrotation
          JOINT Head
          {
            OFFSET 0 9.6179 1.685
            CHANNELS 6 Xposition Yposition Zposition Zrotation Xrotation Yrotation
            JOINT HeadTop_End
            {
              OFFSET 0 17.8152 2.585
              CHANNELS 6 Xposition Yposition Zposition Zrotation Xrotation Yrotation
              End Site
              {
                OFFSET 0 0 0
              }
            }
            JOINT LeftEye
            {
              OFFSET 3.0676 6.4095 9.2836
              CHANNELS 6 Xposition Yposition Zposition Zrotation Xrotation Yrotation
              End Site
              {
                OFFSET 0 0 0
              }
            }
            JOINT RightEye
            {
              OFFSET -3.0676 6.4095 9.2835
              CHANNELS 6 Xposition Yposition Zposition Zrotation Xrotation Yrotation
              End Site
              {
                OFFSET 0 0 0
              }
            }
          }
        }
        JOINT LeftShoulder
        {
          OFFSET 4.5704 10.946 -2.628
          CHANNELS 6 Xposition Yposition Zposition Zrotation Xrotation Yrotation
          JOINT LeftArm
          {
            OFFSET 10.5924 -0.5246 -2.2321
            CHANNELS 6 Xposition Yposition Zposition Zrotation Xrotation Yrotation
            JOINT LeftForeArm
            {
              OFFSET 27.8415 -0.0001 0
              CHANNELS 6 Xposition Yposition Zposition Zrotation Xrotation Yrotation
              JOINT LeftHand
              {
                OFFSET 28.3288 0 0
                CHANNELS 6 Xposition Yposition Zposition Zrotation Xrotation Yrotation
                JOINT LeftHandThumb1
                {
                  OFFSET 2.4661 -1.575 2.6824
                  CHANNELS 6 Xposition Yposition Zposition Zrotation Xrotation Yrotation
                  JOINT LeftHandThumb2
                  {
                    OFFSET 3.2298 -1.8647 1.8647
                    CHANNELS 6 Xposition Yposition Zposition Zrotation Xrotation Yrotation
                    JOINT LeftHandThumb3
                    {
                      OFFSET 2.6526 -1.5315 1.5315
                      CHANNELS 6 Xposition Yposition Zposition Zrotation Xrotation Yrotation
                      End Site
                      {
                        OFFSET 1.9546 -1.1285 1.1285
                      }
                    }
                  }
                }
                JOINT LeftHandIndex1
                {
                  OFFSET 9.1093 -0.5171 2.2601
                  CHANNELS 6 Xposition Yposition Zposition Zrotation Xrotation Yrotation
                  JOINT LeftHandIndex2
                  {
                    OFFSET 3.6764 0 0
                    CHANNELS 6 Xposition Yposition Zposition Zrotation Xrotation Yrotation
                    JOINT LeftHandIndex3
                    {
                      OFFSET 2.8831 0 0
                      CHANNELS 6 Xposition Yposition Zposition Zrotation Xrotation Yrotation
                      End Site
                      {
                        OFFSET 2.3927 0 0
                      }
                    }
                  }
                }
                JOINT LeftHandMiddle1
                {
                  OFFSET 9.5334 0 0
                  CHANNELS 6 Xposition Yposition Zposition Zrotation Xrotation Yrotation
                  JOINT LeftHandMiddle2
                  {
                    OFFSET 3.6982 0 0
                    CHANNELS 6 Xposition Yposition Zposition Zrotation Xrotation Yrotation
                    JOINT LeftHandMiddle3
                    {
                      OFFSET 2.9509 0 0
                      CHANNELS 6 Xposition Yposition Zposition Zrotation Xrotation Yrotation
                      End Site
                      {
                        OFFSET 2.8339 0 0
                      }
                    }
                  }
                }
                JOINT LeftHandRing1
                {
                  OFFSET 9.1045 -0.0439 -1.8651
                  CHANNELS 6 Xposition Yposition Zposition Zrotation Xrotation Yrotation
                  JOINT LeftHandRing2
                  {
                    OFFSET 3.154 0 0
                    CHANNELS 6 Xposition Yposition Zposition Zrotation Xrotation Yrotation
                    JOINT LeftHandRing3
                    {
                      OFFSET 2.9377 0 0
                      CHANNELS 6 Xposition Yposition Zposition Zrotation Xrotation Yrotation
                      End Site
                      {
                        OFFSET 2.6475 0 0
                      }
                    }
                  }
                }
                JOINT LeftHandPinky1
                {
                  OFFSET 8.0778 -0.4887 -3.8061
                  CHANNELS 6 Xposition Yposition Zposition Zrotation Xrotation Yrotation
                  JOINT LeftHandPinky2
                  {
                    OFFSET 3.6 0 0
                    CHANNELS 6 Xposition Yposition Zposition Zrotation Xrotation Yrotation
                    JOINT LeftHandPinky3
                    {
                      OFFSET 2.1142 0 0
                      CHANNELS 6 Xposition Yposition Zposition Zrotation Xrotation Yrotation
                      End Site
                      {
                        OFFSET 1.9757 0 0
                      }
                    }
                  }
                }
              }
            }
          }
        }
        JOINT RightShoulder
        {
          OFFSET -4.57 10.9462 -2.628
          CHANNELS 6 Xposition Yposition Zposition Zrotation Xrotation Yrotation
          JOINT RightArm
          {
            OFFSET -10.5928 -0.5248 -2.2321
            CHANNELS 6 Xposition Yposition Zposition Zrotation Xrotation Yrotation
            JOINT RightForeArm
            {
              OFFSET -27.8415 0 0
              CHANNELS 6 Xposition Yposition Zposition Zrotation Xrotation Yrotation
              JOINT RightHand
              {
                OFFSET -28.3288 0 0.0001
                CHANNELS 6 Xposition Yposition Zposition Zrotation Xrotation Yrotation
                JOINT RightHandPinky1
                {
                  OFFSET -8.0767 -0.4885 -3.806
                  CHANNELS 6 Xposition Yposition Zposition Zrotation Xrotation Yrotation
                  JOINT RightHandPinky2
                  {
                    OFFSET -3.6 0 0.0001
                    CHANNELS 6 Xposition Yposition Zposition Zrotation Xrotation Yrotation
                    JOINT RightHandPinky3
                    {
                      OFFSET -2.1142 0 0
                      CHANNELS 6 Xposition Yposition Zposition Zrotation Xrotation Yrotation
                      End Site
                      {
                        OFFSET -1.9757 0 0
                      }
                    }
                  }
                }
                JOINT RightHandRing1
                {
                  OFFSET -9.1036 -0.0439 -1.8651
                  CHANNELS 6 Xposition Yposition Zposition Zrotation Xrotation Yrotation
                  JOINT RightHandRing2
                  {
                    OFFSET -3.154 0 0
                    CHANNELS 6 Xposition Yposition Zposition Zrotation Xrotation Yrotation
                    JOINT RightHandRing3
                    {
                      OFFSET -2.9377 0 0
                      CHANNELS 6 Xposition Yposition Zposition Zrotation Xrotation Yrotation
                      End Site
                      {
                        OFFSET -2.6475 0 0
                      }
                    }
                  }
                }
                JOINT RightHandMiddle1
                {
                  OFFSET -9.5325 0 0
                  CHANNELS 6 Xposition Yposition Zposition Zrotation Xrotation Yrotation
                  JOINT RightHandMiddle2
                  {
                    OFFSET -3.6982 0 0
                    CHANNELS 6 Xposition Yposition Zposition Zrotation Xrotation Yrotation
                    JOINT RightHandMiddle3
                    {
                      OFFSET -2.9509 0 0
                      CHANNELS 6 Xposition Yposition Zposition Zrotation Xrotation Yrotation
                      End Site
                      {
                        OFFSET -2.8339 0 0.0001
                      }
                    }
                  }
                }
                JOINT RightHandIndex1
                {
                  OFFSET -9.1083 -0.5168 2.2601
                  CHANNELS 6 Xposition Yposition Zposition Zrotation Xrotation Yrotation
                  JOINT RightHandIndex2
                  {
                    OFFSET -3.6764 0 0
                    CHANNELS 6 Xposition Yposition Zposition Zrotation Xrotation Yrotation
                    JOINT RightHandIndex3
                    {
                      OFFSET -2.8831 0 0
                      CHANNELS 6 Xposition Yposition Zposition Zrotation Xrotation Yrotation
                      End Site
                      {
                        OFFSET -2.3927 0 0
                      }
                    }
                  }
                }
                JOINT RightHandThumb1
                {
                  OFFSET -2.4648 -1.5727 2.6826
                  CHANNELS 6 Xposition Yposition Zposition Zrotation Xrotation Yrotation
                  JOINT RightHandThumb2
                  {
                    OFFSET -3.2298 -1.8647 1.8647
                    CHANNELS 6 Xposition Yposition Zposition Zrotation Xrotation Yrotation
                    JOINT RightHandThumb3
                    {
                      OFFSET -2.6526 -1.5314 1.5314
                      CHANNELS 6 Xposition Yposition Zposition Zrotation Xrotation Yrotation
                      End Site
                      {
                        OFFSET -1.9546 -1.1285 1.1285
                      }
                    }
                  }
                }
              }
            }
          }
        }
      }
    }
  }
  JOINT LeftUpLeg
  {
    OFFSET 8.2078 -6.7517 -1.5996
    CHANNELS 6 Xposition Yposition Zposition Zrotation Xrotation Yrotation
    JOINT LeftLeg
    {
      OFFSET 0 -44.3705 0.2846
      CHANNELS 6 Xposition Yposition Zposition Zrotation Xrotation Yrotation
      JOINT LeftFoot
      {
        OFFSET 0 -44.4279 -2.9822
        CHANNELS 6 Xposition Yposition Zposition Zrotation Xrotation Yrotation
        JOINT LeftToeBase
        {
          OFFSET 0 -8.7287 10.7106
          CHANNELS 6 Xposition Yposition Zposition Zrotation Xrotation Yrotation
          End Site
          {
            OFFSET 0 -0.0007 9.2781
          }
        }
      }
    }
  }
  JOINT RightUpLeg
  {
    OFFSET -8.2078 -6.7517 -1.5996
    CHANNELS 6 Xposition Yposition Zposition Zrotation Xrotation Yrotation
    JOINT RightLeg
    {
      OFFSET 0 -44.3705 0.2862
      CHANNELS 6 Xposition Yposition Zposition Zrotation Xrotation Yrotation
      JOINT RightFoot
      {
        OFFSET 0 -44.4277 -2.9838
        CHANNELS 6 Xposition Yposition Zposition Zrotation Xrotation Yrotation
        JOINT RightToeBase
        {
          OFFSET 0 -8.7287 10.7106
          CHANNELS 6 Xposition Yposition Zposition Zrotation Xrotation Yrotation
          End Site
          {
            OFFSET 0 -0.0007 9.2781
          }
        }
      }
    }
  }
}
MOTION
Frames:	4
Frame Time:	0.0333333
3.14387 102.488 0.872826 -3.42974 1.53783 14.0242 4.44089e-016 10.1816 0.1315 6.67742 2.36033 7.87047 -1.77636e-015 10.0835 -1.0008 1.56469 -1.32523 3.44493 0 9.1 -1.3734 1.34361 -1.12021 3.7296 3.55271e-015 16.6717 -2.5162 -2.19969 -2.87304 1.18571 -1.77636e-015 9.6179 1.685 -6.34208 -4.03042 16.5247 0 17.8152 2.585 8.82781e-032 7.95139e-016 -6.36111e-015 3.0676 6.4095 9.2836 8.82781e-032 7.95139e-016 -6.36111e-015 -3.0676 6.4095 9.2835 8.82781e-032 7.95139e-016 -6.36111e-015 4.5704 10.946 -2.628 -1.79999 4.00096 -4.5923 10.5924 -0.5246 -2.2321 -69.4407 3.65589 13.0816 27.8415 -0.0001 7.10543e-015 -0.000198364 -3.80234e-015 -122.813 28.3288 1.42109e-014 0 8.35646 -8.38109 -7.07495 2.4661 -1.575 2.6824 19.9521 27.8755 -14.9051 3.2298 -1.8647 1.8647 -2.60667 -0.385974 32.7778 2.6526 -1.5315 1.5315 -0.357161 2.0603 9.32366 9.1093 -0.5171 2.2601 -68.4246 -7.13664 7.10668 3.6764 0 0 -81.2675 -5.67806 5.84482 2.8831 -7.10543e-015 1.42109e-014 -70.9139 -3.90547 5.24297 9.5334 0 -1.42109e-014 -63.0473 -7.9916 9.21376 3.6982 0 -1.42109e-014 -81.0081 -5.73925 5.71273 2.9509 7.10543e-015 0 -59.8192 -2.93202 5.15868 9.1045 -0.0439 -1.8651 -70.0926 -8.98893 10.6171 3.154 0 0 -84.1933 -4.89536 6.19978 2.9377 0 0 -63.1372 -2.57412 5.37035 8.0778 -0.4887 -3.8061 -78.7073 -16.3875 12.292 3.6 0 0 -89.3514 -5.98475 5.24934 2.1142 -1.42109e-014 -1.42109e-014 -64.3082 -3.70132 5.74965 -4.57 10.9462 -2.628 -2.23993 7.27269 -2.88357 -10.5928 -0.5248 -2.2321 71.0967 -16.2314 14.4199 -27.8415 7.10543e-015 0 -1.33366e-005 -7.41384e-006 119.07 -28.3288 0 0.0001 -10.5095 29.4083 17.4408 -8.0767 -0.4885 -3.806 94.1093 -19.1825 -9.11346 -3.6 -1.42109e-014 0.0001 104.312 -7.45008 -4.98952 -2.1142 0 -3.55271e-015 80.8275 -5.46695 -3.07518 -9.1036 -0.0439 -1.8651 85.1733 -10.794 -9.09272 -3.154 0 7.10543e-015 99.0212 -6.36164 -6.21436 -2.9377 0 0 76.5126 -3.85323 -4.10554 -9.5325 0 -3.55271e-015 78.0739 -9.93107 -8.02557 -3.6982 0 -7.10543e-015 95.8936 -7.22878 -5.50939 -2.9509 0 3.55271e-015 78.3482 -4.67298 -5.62696 -9.1083 -0.5168 2.2601 78.258 -8.19203 -6.9637 -3.6764 0 -7.10543e-015 91.0937 -6.67373 -5.77442 -2.8831 0 3.55271e-015 84.3829 -5.27955 -4.52363 -2.4648 -1.5727 2.6826 -24.8253 27.7558 17.6212 -3.2298 -1.8647 1.8647 2.60804 -0.386608 -32.7764 -2.6526 -1.5314 1.5314 1.1048 1.84593 -8.46826 8.2078 -6.7517 -1.5996 5.18471 -20.0079 14.8565 -8.88178e-016 -44.3705 0.2846 0.170052 16.1572 -9.75147 0 -44.4279 -2.9822 1.86471 1.74776 -6.18824 3.55271e-015 -8.7287 10.7106 2.90344e-007 0.288828 9.06476e-006 -8.2078 -6.7517 -1.5996 0.387023 -11.3153 -3.3203 -1.77636e-015 -44.3705 0.2862 4.79328 15.3556 -10.5732 0 -44.4277 -2.9838 -1.51199 -6.60978 -11.8938 8.88178e-016 -8.7287 10.7106 7.64792e-008 -1.74613 -5.902e-006 
3.17524 101.669 0.360022 -3.0376 1.053 14.2236 2.22045e-016 10.1816 0.1315 7.09893 3.3576 8.05453 -1.77636e-015 10.0835 -1.0008 1.27451 -1.49346 3.50831 -3.55271e-015 9.1 -1.3734 1.02405 -1.25593 3.78722 3.55271e-015 16.6717 -2.5162 -2.29515 -2.9596 1.22368 1.77636e-015 9.6179 1.685 -6.05427 -4.49893 16.6477 1.77636e-015 17.8152 2.585 1.59028e-015 1.59028e-015 -0 3.0676 6.4095 9.2836 1.59028e-015 1.59028e-015 -0 -3.0676 6.4095 9.2835 1.59028e-015 1.59028e-015 -0 4.5704 10.946 -2.628 -4.98383 3.50249 -4.63284 10.5924 -0.5246 -2.2321 -66.7863 3.13106 14.3672 27.8415 -0.0001 0 -0.000211848 7.14273e-006 -117.911 28.3288 0 -1.42109e-014 6.54088 -8.96275 -13.1465 2.4661 -1.575 2.6824 19.9515 27.8752 -14.9065 3.2298 -1.8647 1.8647 -2.60667 -0.385974 32.7778 2.6526 -1.5315 1.5315 -0.357161 2.0603 9.32366 9.1093 -0.5171 2.2601 -68.4248 -7.13487 7.10713 3.6764 0 0 -81.2675 -5.67807 5.84482 2.8831 7.10543e-015 -1.42109e-014 -70.9139 -3.90548 5.24298 9.5334 7.10543e-015 -1.42109e-014 -63.0473 -7.99158 9.21342 3.6982 0 0 -81.0065 -5.73911 5.71273 2.9509 3.55271e-015 0 -59.8192 -2.93201 5.15871 9.1045 -0.0439 -1.8651 -70.0928 -8.98886 10.6153 3.154 0 1.42109e-014 -84.1911 -4.89514 6.19977 2.9377 0 0 -63.1372 -2.57411 5.37033 8.0778 -0.4887 -3.8061 -78.7075 -16.3875 12.2901 3.6 0 0 -89.3514 -5.98475 5.24935 2.1142 -1.42109e-014 1.42109e-014 -64.3082 -3.70132 5.74965 -4.57 10.9462 -2.628 -0.525798 6.56671 -1.80275 -10.5928 -0.5248 -2.2321 68.7491 -16.1539 12.5948 -27.8415 0 0 2.75057e-005 1.32196e-005 115.67 -28.3288 0 0.0001 -19.6248 27.637 23.5225 -8.0767 -0.4885 -3.806 94.1093 -19.1825 -9.11347 -3.6 0 0.0001 104.312 -7.45007 -4.98953 -2.1142 0 -7.10543e-015 80.8275 -5.46694 -3.07518 -9.1036 -0.0439 -1.8651 85.1732 -10.7941 -9.09338 -3.154 0 7.10543e-015 99.0212 -6.36164 -6.21437 -2.9377 1.42109e-014 -1.77636e-014 76.5127 -3.85323 -4.10554 -9.5325 7.10543e-015 0 78.0738 -9.93107 -8.0262 -3.6982 0 -7.10543e-015 95.8936 -7.22877 -5.5094 -2.9509 -7.10543e-015 7.10543e-015 78.3482 -4.67299 -5.62696 -9.1083 -0.5168 2.2601 78.2581 -8.19207 -6.96226 -3.6764 -2.84217e-014 -1.42109e-014 91.0937 -6.67373 -5.77443 -2.8831 7.10543e-015 0 84.3829 -5.27953 -4.52362 -2.4648 -1.5727 2.6826 -24.8257 27.7559 17.6205 -3.2298 -1.8647 1.8647 2.60804 -0.386608 -32.7764 -2.6526 -1.5314 1.5314 1.1048 1.84593 -8.46826 8.2078 -6.7517 -1.5996 4.58899 -22.211 13.5903 0 -44.3705 0.2846 1.16797 20.8274 -10.4063 1.77636e-015 -44.4279 -2.9822 1.80857 -0.326011 -4.84031 -1.77636e-015 -8.7287 10.7106 -8.46626e-007 0.38477 1.08996e-006 -8.2078 -6.7517 -1.5996 -0.0468913 -13.9618 -3.93521 1.77636e-015 -44.3705 0.2862 4.38541 21.2781 -11.1949 0 -44.4277 -2.9838 -0.625996 -9.21474 -10.8982 0 -8.7287 10.7106 8.33699e-007 -2.67685 -2.15633e-007 
3.15141 100.714 -0.317718 -2.52777 0.159422 14.5842 -8.88178e-016 10.1816 0.1315 7.51568 4.81664 7.74169 0 10.0835 -1.0008 0.983771 -1.50818 3.3937 0 9.1 -1.3734 0.712315 -1.24711 3.65546 3.55271e-015 16.6717 -2.5162 -2.33908 -2.98183 1.28677 0 9.6179 1.685 -5.85983 -5.2793 17.1925 0 17.8152 2.585 2.64834e-031 1.59028e-015 -9.54166e-015 3.0676 6.4095 9.2836 2.64834e-031 1.59028e-015 -9.54166e-015 -3.0676 6.4095 9.2835 2.64834e-031 1.59028e-015 -9.54166e-015 4.5704 10.946 -2.628 -7.73426 3.18598 -4.91239 10.5924 -0.5246 -2.2321 -64.863 2.38866 14.7062 27.8415 -0.0001 0 -0.000212492 5.76433e-006 -112.196 28.3288 0 0 4.31051 -14.4373 -15.4889 2.4661 -1.575 2.6824 19.9508 27.8748 -14.9081 3.2298 -1.8647 1.8647 -2.60667 -0.385974 32.7778 2.6526 -1.5315 1.5315 -0.357161 2.0603 9.32366 9.1093 -0.5171 2.2601 -68.425 -7.13311 7.10754 3.6764 0 0 -81.2675 -5.67805 5.84482 2.8831 -7.10543e-015 0 -70.9139 -3.90547 5.24298 9.5334 0 0 -63.0473 -7.9916 9.21309 3.6982 7.10543e-015 0 -81.0049 -5.73893 5.71274 2.9509 -3.55271e-015 0 -59.8192 -2.93201 5.15868 9.1045 -0.0439 -1.8651 -70.0931 -8.98882 10.6135 3.154 0 2.84217e-014 -84.1888 -4.8949 6.19973 2.9377 -7.10543e-015 0 -63.1373 -2.57412 5.37034 8.0778 -0.4887 -3.8061 -78.7077 -16.3875 12.2881 3.6 0 0 -89.3513 -5.98474 5.24934 2.1142 7.10543e-015 1.42109e-014 -64.3082 -3.70133 5.74963 -4.57 10.9462 -2.628 1.23769 5.79386 -0.417154 -10.5928 -0.5248 -2.2321 66.6273 -16.0325 10.1935 -27.8415 0 1.77636e-015 1.52588e-005 8.53022e-012 109.541 -28.3288 7.10543e-015 0.0001 -22.765 27.0756 24.5361 -8.0767 -0.4885 -3.806 94.1093 -19.1825 -9.1135 -3.6 0 0.0001 104.312 -7.45008 -4.98951 -2.1142 0 0 80.8275 -5.46695 -3.07519 -9.1036 -0.0439 -1.8651 85.1732 -10.7941 -9.0941 -3.154 0 1.42109e-014 99.0212 -6.36165 -6.21436 -2.9377 -1.42109e-014 -7.10543e-015 76.5127 -3.85324 -4.10552 -9.5325 0 -3.55271e-015 78.0737 -9.93106 -8.02743 -3.6982 0 2.13163e-014 95.8936 -7.22876 -5.5094 -2.9509 0 3.55271e-015 78.3482 -4.67298 -5.62695 -9.1083 -0.5168 2.2601 78.2583 -8.19218 -6.96059 -3.6764 2.84217e-014 1.42109e-014 91.0936 -6.67373 -5.77443 -2.8831 7.10543e-015 -3.55271e-015 84.3829 -5.27954 -4.52363 -2.4648 -1.5727 2.6826 -24.826 27.756 17.6197 -3.2298 -1.8647 1.8647 2.60804 -0.386608 -32.7764 -2.6526 -1.5314 1.5314 1.1048 1.84593 -8.46826 8.2078 -6.7517 -1.5996 3.08044 -24.1393 11.0405 -1.77636e-015 -44.3705 0.2846 3.13503 25.294 -11.3303 0 -44.4279 -2.9822 1.22798 -2.19422 -2.51662 -1.77636e-015 -8.7287 10.7106 4.85849e-006 0.370229 -4.30863e-006 -8.2078 -6.7517 -1.5996 -0.622818 -16.0297 -4.88787 -1.77636e-015 -44.3705 0.2862 4.00557 26.7877 -11.5514 8.88178e-016 -44.4277 -2.9838 0.177701 -11.5432 -9.90144 0 -8.7287 10.7106 -5.69668e-007 -2.93793 4.81728e-006 
3.01428 99.7411 -0.977452 -2.51947 -0.717139 14.539 2.22045e-016 10.1816 0.1315 8.00186 6.09666 7.32197 0 10.0835 -1.0008 0.923725 -1.32771 3.26293 0 9.1 -1.3734 0.644963 -1.05739 3.50907 0 16.6717 -2.5162 -2.28224 -3.05254 1.31961 0 9.6179 1.685 -5.87447 -6.5015 17.7179 -1.77636e-015 17.8152 2.585 -0 -2.38542e-015 -0 3.0676 6.4095 9.2836 -0 -2.38542e-015 -0 -3.0676 6.4095 9.2835 -0 -2.38542e-015 -0 4.5704 10.946 -2.628 -9.08458 3.169 -5.21963 10.5924 -0.5246 -2.2321 -64.324 1.43308 14.2838 27.8415 -0.0001 0 -0.000229729 -5.01307e-006 -109.18 28.3288 0 1.42109e-014 2.58652 -18.7537 -11.6559 2.4661 -1.575 2.6824 19.9501 27.8745 -14.9098 3.2298 -1.8647 1.8647 -2.60667 -0.385974 32.7778 2.6526 -1.5315 1.5315 -0.357161 2.0603 9.32366 9.1093 -0.5171 2.2601 -68.4252 -7.13137 7.10798 3.6764 7.10543e-015 0 -81.2675 -5.67806 5.84483 2.8831 0 1.42109e-014 -70.9139 -3.90547 5.24298 9.5334 0 0 -63.0474 -7.9916 9.21279 3.6982 -7.10543e-015 1.42109e-014 -81.0033 -5.73878 5.71274 2.9509 0 0 -59.8192 -2.932 5.15871 9.1045 -0.0439 -1.8651 -70.0934 -8.98878 10.6117 3.154 7.10543e-015 0 -84.1865 -4.8947 6.19969 2.9377 0 -1.42109e-014 -63.1372 -2.57412 5.37035 8.0778 -0.4887 -3.8061 -78.7079 -16.3875 12.2863 3.6 0 0 -89.3513 -5.98476 5.24935 2.1142 0 -1.42109e-014 -64.3082 -3.70134 5.74966 -4.57 10.9462 -2.628 2.6335 5.25 0.850263 -10.5928 -0.5248 -2.2321 64.7891 -16.5626 8.05998 -27.8415 -1.42109e-014 0 5.9582e-005 1.14428e-005 104.476 -28.3288 0 0.0001 -17.6464 26.6017 20.3034 -8.0767 -0.4885 -3.806 94.1093 -19.1825 -9.11349 -3.6 0 0.0001 104.312 -7.45008 -4.98951 -2.1142 0 0 80.8275 -5.46695 -3.07518 -9.1036 -0.0439 -1.8651 85.1731 -10.7941 -9.09488 -3.154 0 1.42109e-014 99.0212 -6.36164 -6.21435 -2.9377 0 0 76.5127 -3.85322 -4.10553 -9.5325 1.42109e-014 -7.10543e-015 78.0736 -9.93105 -8.02863 -3.6982 -1.42109e-014 -7.10543e-015 95.8936 -7.22877 -5.50939 -2.9509 0 0 78.3482 -4.67298 -5.62695 -9.1083 -0.5168 2.2601 78.2584 -8.19226 -6.95879 -3.6764 -1.42109e-014 7.10543e-015 91.0937 -6.67372 -5.77443 -2.8831 0 7.10543e-015 84.3829 -5.27954 -4.52362 -2.4648 -1.5727 2.6826 -24.8265 27.7561 17.6187 -3.2298 -1.8647 1.8647 2.60804 -0.386608 -32.7764 -2.6526 -1.5314 1.5314 1.1048 1.84593 -8.46826 8.2078 -6.7517 -1.5996 2.46614 -25.9703 9.09983 8.88178e-016 -44.3705 0.2846 4.66231 29.4763 -12.2917 0 -44.4279 -2.9822 0.744993 -3.86268 -0.385335 -1.77636e-015 -8.7287 10.7106 -4.24289e-007 0.306006 9.56497e-007 -8.2078 -6.7517 -1.5996 -0.597174 -17.7338 -5.42753 0 -44.3705 0.2862 3.78833 31.1711 -11.8796 0 -44.4277 -2.9838 0.689324 -13.2953 -8.89935 0 -8.7287 10.7106 6.89673e-007 -2.9396 -2.87898e-006 
